<svg xmlns="http://www.w3.org/2000/svg" data-name="Layer 1" viewBox="0 0 48 60" x="0px" y="0px"><title>form</title><circle cx="19" cy="5" r="1.5"/><path d="M24.83,46H3.6a.6.6,0,0,1-.6-.6V8.6A.6.6,0,0,1,3.6,8H10V9.18A1.82,1.82,0,0,0,11.8,11H26.2A1.82,1.82,0,0,0,28,9.18V8h6.4a.6.6,0,0,1,.6.6V22a1,1,0,0,0,2,0V8.6A2.61,2.61,0,0,0,34.4,6H27.92A3.41,3.41,0,0,0,24.6,3.27h-.93a5,5,0,0,0-9.34,0H13.4A3.41,3.41,0,0,0,10.08,6H3.6A2.61,2.61,0,0,0,1,8.6V45.4A2.61,2.61,0,0,0,3.6,48H24.83a1,1,0,0,0,0-2ZM12,6.73a1.43,1.43,0,0,1,1.4-1.46h2.5l.16-.81a3,3,0,0,1,5.88,0l.16.81h2.5A1.43,1.43,0,0,1,26,6.73V9H12Z"/><rect x="13" y="17" width="16" height="2"/><path d="M8.5,15.5A2.5,2.5,0,1,0,11,18,2.5,2.5,0,0,0,8.5,15.5Zm0,4A1.5,1.5,0,1,1,10,18,1.5,1.5,0,0,1,8.5,19.5Z"/><rect x="13" y="27" width="10" height="2"/><path d="M8.5,25.5A2.5,2.5,0,1,0,11,28,2.5,2.5,0,0,0,8.5,25.5Zm0,4A1.5,1.5,0,1,1,10,28,1.5,1.5,0,0,1,8.5,29.5Z"/><rect x="13" y="37" width="8" height="2"/><path d="M8.5,35.5A2.5,2.5,0,1,0,11,38,2.5,2.5,0,0,0,8.5,35.5Zm0,4A1.5,1.5,0,1,1,10,38,1.5,1.5,0,0,1,8.5,39.5Z"/><path d="M36,26A11,11,0,1,0,47,37,11,11,0,0,0,36,26Zm0,20a9,9,0,1,1,9-9A9,9,0,0,1,36,46Z"/><path d="M39.28,33.31l-5,5.24-1.57-1.64a1,1,0,0,0-1.44,1.38l2.28,2.4a1,1,0,0,0,1.45,0l5.71-6a1,1,0,0,0-1.44-1.38Z"/></svg>