<svg version="1.0" xmlns="http://www.w3.org/2000/svg"
 width="190.000000pt" height="104.000000pt" viewBox="0 0 190.000000 104.000000"
 preserveAspectRatio="xMidYMid meet">

<g transform="translate(0.000000,104.000000) scale(0.100000,-0.100000)"
fill="#0072b8" stroke="none">
<path d="M670 695 l0 -85 -80 0 -80 0 0 55 0 55 -60 0 -60 0 0 -105 0 -105
135 0 135 0 0 -24 c0 -15 -11 -33 -26 -45 -23 -18 -41 -21 -135 -21 l-109 0 0
-50 0 -50 133 0 c118 0 138 3 177 23 76 38 84 64 88 265 l4 172 -61 0 -61 0 0
-85z"/>
<path d="M890 707 c-37 -19 -50 -54 -50 -140 0 -108 15 -160 56 -196 46 -41
90 -51 227 -51 l117 0 0 50 0 50 -106 0 c-100 0 -139 8 -156 34 -4 6 -8 41 -8
78 0 56 3 69 19 78 11 5 72 10 135 10 l116 0 0 50 0 50 -162 0 c-111 0 -171
-4 -188 -13z"/>
<path d="M1340 713 c-32 -11 -40 -37 -40 -124 0 -116 1 -117 145 -132 l30 -3
-29 -12 c-16 -7 -55 -15 -87 -19 l-59 -6 0 -48 c0 -49 0 -49 33 -49 47 0 161
26 197 45 68 35 160 141 160 184 0 6 -50 12 -127 13 l-128 3 0 25 0 25 133 3
132 3 0 49 0 50 -172 -1 c-95 0 -180 -3 -188 -6z"/>
<path d="M40 580 c0 -20 5 -20 127 -18 112 3 128 5 131 21 3 15 -8 17 -127 17
-125 0 -131 -1 -131 -20z"/>
<path d="M1772 584 c-50 -34 -2 -111 53 -86 33 15 34 64 3 86 -12 9 -25 16
-28 16 -3 0 -16 -7 -28 -16z"/>
<path d="M40 458 c0 -23 0 -23 127 -18 111 4 128 7 131 23 3 15 -8 17 -127 17
-129 0 -131 0 -131 -22z"/>
<path d="M1762 398 c-22 -22 -14 -57 19 -77 l31 -19 -31 -23 c-36 -27 -40 -40
-9 -34 28 6 63 40 78 75 17 41 -5 84 -45 88 -17 2 -36 -3 -43 -10z"/>
</g>
</svg>
