<svg xmlns="http://www.w3.org/2000/svg" version="1.0" width="341.000000pt" height="63.000000pt" viewBox="0 0 341.000000 63.000000" preserveAspectRatio="xMidYMid meet">

<g transform="translate(0.000000,63.000000) scale(0.100000,-0.100000)" fill="#0072b8" stroke="none">
<path d="M660 450 l0 -71 -67 3 -68 3 0 43 0 42 -52 0 -53 0 0 -90 0 -90 120 0 c128 0 136 -3 104 -48 -14 -20 -23 -22 -120 -22 l-104 0 0 -46 0 -46 118 4 c132 3 164 14 199 67 21 31 23 45 23 177 l0 144 -50 0 -50 0 0 -70z"/>
<path d="M831 444 c-29 -37 -30 -169 -2 -231 29 -63 63 -76 204 -81 l117 -4 0 46 0 46 -98 0 c-116 0 -132 10 -140 88 -7 74 6 82 134 82 l104 0 0 40 0 40 -149 0 -150 0 -20 -26z"/>
<path d="M1224 456 c-16 -12 -19 -27 -19 -96 0 -95 4 -100 88 -100 42 0 57 -4 55 -12 -4 -12 -31 -20 -108 -32 -35 -6 -35 -7 -32 -47 l4 -41 47 7 c130 18 232 82 266 168 l15 37 -109 0 c-99 0 -109 2 -114 19 -3 11 -2 22 1 25 3 3 55 6 116 6 l111 0 0 40 0 40 -151 0 c-114 0 -155 -3 -170 -14z"/>
<path d="M1619 451 c-22 -18 -24 -26 -24 -118 0 -167 30 -195 218 -201 l117 -4 0 46 0 46 -98 0 c-122 0 -132 7 -132 97 0 46 4 62 16 67 9 3 60 6 115 6 l99 0 0 40 0 40 -144 0 c-127 0 -147 -2 -167 -19z"/>
<path d="M2009 451 c-23 -18 -24 -25 -27 -170 l-3 -151 50 0 50 0 3 53 3 52 58 3 57 3 0 -56 0 -55 55 0 55 0 0 170 0 170 -139 0 c-122 0 -142 -2 -162 -19z m191 -91 l0 -30 -61 0 c-58 0 -60 1 -53 23 9 30 22 37 72 37 40 0 42 -1 42 -30z"/>
<path d="M2360 300 l0 -170 50 0 50 0 0 55 c0 76 17 72 84 -21 l55 -76 50 -2 c28 0 51 1 51 4 -1 3 -23 36 -50 75 l-49 69 29 12 c39 17 50 42 50 112 0 45 -5 66 -21 86 -20 26 -21 26 -160 26 l-139 0 0 -170z m204 74 c32 -32 20 -44 -44 -44 l-60 0 0 30 c0 29 2 30 44 30 27 0 51 -6 60 -16z"/>
<path d="M2730 299 l0 -171 118 3 c134 5 171 19 203 79 28 52 27 197 -2 234 l-20 26 -150 0 -149 0 0 -171z m230 72 c21 -40 8 -122 -24 -143 -6 -4 -32 -8 -58 -8 l-48 0 0 85 0 85 60 0 c48 0 61 -4 70 -19z"/>
<path d="M120 355 c0 -12 19 -15 115 -15 96 0 115 3 115 15 0 12 -19 15 -115 15 -96 0 -115 -3 -115 -15z"/>
<path d="M3136 357 c-22 -16 -18 -55 7 -71 39 -24 79 44 41 71 -10 7 -21 13 -24 13 -3 0 -14 -6 -24 -13z"/>
<path d="M120 245 c0 -12 19 -15 115 -15 96 0 115 3 115 15 0 12 -19 15 -115 15 -96 0 -115 -3 -115 -15z"/>
<path d="M3133 203 c-7 -2 -13 -18 -13 -35 0 -21 6 -31 20 -35 11 -3 20 -11 20 -19 0 -7 -9 -18 -20 -24 -11 -6 -20 -15 -20 -21 0 -22 63 25 76 58 13 31 13 38 -1 59 -15 23 -35 28 -62 17z"/>
</g>
</svg>