<svg xmlns="http://www.w3.org/2000/svg" version="1.0" width="435.000000pt" height="176.000000pt" viewBox="0 0 435.000000 176.000000" preserveAspectRatio="xMidYMid meet">

    <g transform="translate(0.000000,176.000000) scale(0.100000,-0.100000)" fill="#eea523" stroke="none">
    <path d="M1229 1642 c-63 -63 -72 -106 -35 -162 60 -91 193 -75 246 31 31 60 27 109 -13 147 -29 29 -39 32 -91 32 -57 0 -61 -2 -107 -48z"/>
    <path d="M1556 1668 c-14 -22 -27 -113 -42 -278 -3 -41 -10 -85 -15 -98 -5 -13 -14 -78 -20 -145 -5 -67 -16 -147 -24 -177 -8 -30 -18 -102 -24 -160 -5 -58 -13 -115 -16 -127 l-7 -23 125 0 c69 0 136 5 149 11 19 8 35 5 81 -15 90 -40 122 -42 200 -11 54 22 79 40 125 90 31 35 67 83 79 107 34 65 73 172 73 197 0 44 18 61 64 61 23 0 66 7 94 15 51 16 72 14 72 -6 0 -5 -59 -69 -131 -141 -138 -139 -155 -167 -161 -258 l-3 -45 265 -8 c146 -4 279 -5 296 -2 36 6 44 24 44 100 0 95 0 95 -101 95 -82 0 -89 2 -89 19 0 12 46 67 109 132 109 112 109 113 131 194 12 44 20 94 18 110 l-3 30 -275 3 c-308 3 -300 5 -300 -69 0 -62 -20 -139 -36 -139 -16 0 -18 4 -33 66 -15 58 -74 122 -145 155 -76 36 -113 36 -200 -1 -38 -16 -73 -27 -77 -24 -14 8 -10 71 6 110 14 34 18 58 30 192 l6 62 -125 0 c-119 0 -126 -1 -140 -22z m402 -563 c40 -43 40 -60 3 -134 -25 -48 -37 -61 -71 -75 -62 -25 -103 -21 -139 13 -28 26 -31 35 -31 90 0 53 4 64 31 96 58 65 150 70 207 10z"/>
    <path d="M3119 1355 c-122 -49 -220 -143 -265 -255 -21 -52 -26 -81 -25 -143 0 -70 4 -86 37 -148 30 -56 47 -76 93 -107 32 -21 88 -46 126 -57 66 -18 73 -18 134 -1 132 34 241 118 297 229 13 26 31 47 39 47 22 0 19 -98 -5 -167 -34 -97 -40 -93 114 -93 80 0 137 4 141 10 3 6 10 48 15 94 5 46 16 124 26 172 14 71 24 95 49 123 27 29 40 35 86 39 35 3 67 -1 91 -11 l36 -15 48 76 c65 101 69 118 38 149 -56 56 -145 76 -221 49 -31 -11 -74 -13 -181 -9 -135 6 -140 5 -151 -16 -7 -11 -18 -80 -25 -152 -8 -72 -16 -132 -18 -133 -12 -11 -70 -36 -82 -36 -8 0 -38 -5 -67 -11 -42 -9 -64 -23 -115 -70 -60 -56 -72 -62 -138 -72 -53 -9 -115 29 -89 54 8 7 96 54 293 156 136 70 140 77 106 148 -33 67 -95 123 -170 153 -72 28 -143 27 -217 -3z m141 -186 c5 -7 7 -16 5 -19 -9 -14 -171 -109 -197 -115 -80 -20 -16 112 72 148 25 11 112 1 120 -14z"/>
    <path d="M383 1324 c-3 -9 6 -56 22 -103 15 -47 36 -113 46 -146 87 -286 108 -346 136 -376 26 -28 31 -67 9 -75 -8 -3 -43 10 -77 28 -58 29 -72 33 -149 33 -76 0 -91 -3 -135 -29 -70 -40 -142 -119 -156 -170 -6 -22 -9 -78 -7 -123 4 -73 8 -88 35 -125 17 -23 54 -55 84 -72 48 -27 63 -31 135 -31 86 0 157 23 217 72 23 18 35 21 75 16 44 -5 52 -2 125 46 42 28 77 57 77 64 0 7 -13 34 -30 60 -35 56 -37 79 -11 128 11 20 32 65 46 100 34 82 52 122 80 184 46 100 165 384 165 394 0 6 12 33 27 59 42 76 35 82 -102 82 l-116 0 -21 -47 c-11 -27 -37 -97 -58 -158 -21 -60 -42 -111 -48 -113 -17 -5 -28 22 -56 143 -29 123 -41 154 -60 167 -6 4 -64 8 -129 8 -100 0 -119 -2 -124 -16z m55 -871 c23 -13 42 -30 42 -37 0 -19 -66 -75 -106 -92 -46 -19 -67 -17 -92 9 -33 36 -36 68 -10 107 37 55 86 59 166 13z"/>
    <path d="M1177 1333 c-4 -3 -7 -21 -7 -38 0 -18 -7 -54 -15 -81 -9 -27 -20 -98 -25 -158 -5 -59 -16 -143 -24 -185 -8 -42 -17 -106 -21 -143 l-6 -68 123 0 123 0 19 83 c10 45 22 127 27 182 5 55 15 124 23 154 8 29 18 100 22 157 l7 104 -120 0 c-66 0 -123 -3 -126 -7z"/>
    </g>
</svg>