<svg xmlns="http://www.w3.org/2000/svg" version="1.0" width="341.000000pt" height="63.000000pt" viewBox="0 0 341.000000 63.000000" preserveAspectRatio="xMidYMid meet">

<g transform="translate(0.000000,80.000000) scale(0.100000,-0.100000)" fill="#0072b8" stroke="none">
<path d="M550 650 l0 -60 -55 0 -55 0 0 40 0 40 -40 0 -40 0 0 -72 0 -73 90 3 c75 3 91 1 96 -13 4 -9 -1 -24 -11 -35 -15 -17 -31 -20 -97 -20 l-78 0 0 -35 0 -35 83 1 c97 0 143 14 170 51 16 22 21 48 25 147 l5 121 -47 0 -46 0 0 -60z"/>
<path d="M696 654 c-12 -11 -16 -36 -16 -94 0 -138 25 -162 173 -168 l97 -4 0 36 0 36 -78 0 c-98 0 -115 13 -110 86 l3 49 93 3 92 3 0 34 0 35 -119 0 c-95 0 -123 -3 -135 -16z"/>
<path d="M1012 658 c-7 -7 -12 -40 -12 -80 0 -65 1 -69 28 -79 15 -6 40 -9 55 -6 15 2 30 0 33 -4 5 -9 -59 -29 -93 -29 -20 0 -23 -5 -23 -35 0 -19 1 -35 3 -35 27 0 130 26 157 40 43 22 85 66 99 103 l11 27 -90 0 c-83 0 -90 1 -90 20 0 19 7 20 90 20 l90 0 0 35 0 35 -123 0 c-82 0 -127 -4 -135 -12z"/>
<path d="M1334 656 c-17 -13 -19 -29 -22 -140 l-4 -126 46 0 46 0 0 40 0 40 90 0 90 0 0 35 0 35 -91 0 -90 0 3 28 3 27 93 3 92 3 0 34 0 35 -118 0 c-86 0 -123 -4 -138 -14z"/>
<path d="M1630 530 l0 -140 45 0 45 0 0 140 0 140 -45 0 -45 0 0 -140z"/>
<path d="M1772 658 c-7 -7 -12 -40 -12 -80 0 -65 1 -69 28 -79 15 -6 40 -9 55 -6 15 2 30 0 33 -4 5 -9 -59 -29 -93 -29 -20 0 -23 -5 -23 -35 0 -40 -1 -40 92 -19 53 12 80 25 110 52 34 31 68 79 68 97 0 3 -40 5 -90 5 -83 0 -90 1 -90 20 0 19 7 20 95 20 l95 0 0 35 0 35 -128 0 c-86 0 -132 -4 -140 -12z"/>
<path d="M2096 654 c-12 -11 -16 -36 -16 -97 0 -138 33 -167 193 -167 l77 0 0 35 0 35 -78 0 c-98 0 -115 13 -110 86 l3 49 93 3 92 3 0 34 0 35 -119 0 c-95 0 -123 -3 -135 -16z"/>
<path d="M2423 662 c-23 -15 -33 -65 -33 -168 l0 -104 45 0 45 0 0 46 0 45 48 -3 47 -3 3 -42 c3 -43 3 -43 43 -43 l39 0 0 140 0 140 -112 0 c-62 0 -118 -4 -125 -8z m147 -87 c0 -23 -4 -25 -45 -25 -37 0 -45 3 -45 18 0 27 9 32 52 32 34 0 38 -3 38 -25z"/>
<path d="M2700 552 c0 -161 -5 -156 154 -160 l126 -4 0 36 0 36 -88 0 c-55 0 -92 4 -100 12 -8 8 -12 46 -12 105 l0 93 -40 0 -40 0 0 -118z"/>
<path d="M110 575 c0 -12 17 -15 90 -15 73 0 90 3 90 15 0 12 -17 15 -90 15 -73 0 -90 -3 -90 -15z"/>
<path d="M3024 565 c-10 -25 4 -45 30 -45 13 0 26 7 30 15 9 25 -5 45 -30 45 -14 0 -27 -7 -30 -15z"/>
<path d="M112 488 c7 -20 178 -22 178 -2 0 11 -19 14 -91 14 -68 0 -90 -3 -87 -12z"/>
<path d="M3033 453 c-19 -7 -16 -51 4 -62 17 -9 16 -11 -1 -30 -27 -30 -1 -27 29 4 29 28 32 57 9 79 -16 17 -21 18 -41 9z"/>
</g>
</svg>